# xmcd
#
# Track frame offsets: 
#        150
#        13253
#        28068
#        40112
#        53330
#        66475
#        78725
#        92366
#        104434
#        116809
#        129690
#        143485
#        156232
#        169927
#        183436
#        196186
#        208711
#        222008
#
# Disc length: 3127 seconds
#
# Revision: 0
# Processed by: cddbd v1.5.2PL0 Copyright (c) Steve Scherf et al.
# Submitted via: ExactAudioCopy v1.0b1
#
DISCID=fd0c3512
DTITLE=T-Bone Walker - The Essential T-Bone Walker Collection   DISC 1
DYEAR=2011
DGENRE=Blues
TTITLE0=Mean Old World
TTITLE1=I Got A Break Baby
TTITLE2=Bobby Sox Baby
TTITLE3=I'm Gonna Find My Baby
TTITLE4=Its a Low Down Deal
TTITLE5=T-Bone Jumps Again
TTITLE6=Call It Stormy Monday
TTITLE7=She's My Old Time Used To Be
TTITLE8=Midnight Blues
TTITLE9=Long Shirt Baby Blues
TTITLE10=I'm Waiting For Your Call
TTITLE11=Hypin' Woman Blues
TTITLE12=Description Blues
TTITLE13=T-Bone Shuffle
TTITLE14=Prison Blues
TTITLE15=I Want A Little Girl
TTITLE16=I'm Still I Love With You
TTITLE17=West Side Baby
EXTD=
EXTT0=
EXTT1=
EXTT2=
EXTT3=
EXTT4=
EXTT5=
EXTT6=
EXTT7=
EXTT8=
EXTT9=
EXTT10=
EXTT11=
EXTT12=
EXTT13=
EXTT14=
EXTT15=
EXTT16=
EXTT17=
PLAYORDER=
